<?xml version="1.0" standalone="no"?>
<!DOCTYPE svg PUBLIC "-//W3C//DTD SVG 20010904//EN"
 "http://www.w3.org/TR/2001/REC-SVG-20010904/DTD/svg10.dtd">
<svg version="1.0" xmlns="http://www.w3.org/2000/svg"
 width="1080.000000pt" height="1080.000000pt" viewBox="0 0 1080.000000 1080.000000"
 preserveAspectRatio="xMidYMid meet">
<metadata>
Created by potrace 1.14, written by Peter Selinger 2001-2017
</metadata>
<g transform="translate(0.000000,1080.000000) scale(0.100000,-0.100000)"
fill="#000000" stroke="none">
<path d="M5055 10793 c-1700 -109 -3242 -1009 -4177 -2438 -505 -771 -796
-1632 -868 -2564 -13 -174 -13 -608 0 -782 6 -73 19 -204 30 -289 257 -2062
1694 -3803 3679 -4456 395 -130 853 -220 1290 -254 174 -13 608 -13 782 0 929
71 1799 365 2564 867 809 531 1450 1251 1879 2110 318 636 501 1301 556 2022
13 174 13 608 0 782 -113 1479 -802 2818 -1935 3763 -867 723 -1937 1153
-3070 1236 -126 9 -606 11 -730 3z m2683 -1454 c23 -29 42 -59 42 -68 0 -20
-88 134 1190 -2076 564 -973 1025 -1779 1025 -1790 0 -15 -1745 -3046 -2245
-3900 l-47 -80 -2303 0 -2304 0 -500 865 c-276 476 -793 1371 -1150 1987 -356
617 -649 1123 -650 1126 0 2 103 183 230 403 1026 1775 2049 3543 2060 3562
l14 22 2298 0 2298 0 42 -51z"/>
<path d="M3410 9116 c0 -3 312 -541 693 -1196 l693 -1192 619 -1 618 -1 659
1130 c362 621 676 1159 698 1197 l39 67 -2010 0 c-1105 0 -2009 -2 -2009 -4z"/>
<path d="M2325 7528 c-462 -798 -848 -1466 -858 -1485 l-18 -34 53 31 c525
311 1656 574 2806 652 117 8 181 16 178 23 -7 17 -1307 2249 -1314 2257 -4 4
-385 -646 -847 -1444z"/>
<path d="M6993 7831 c-359 -616 -653 -1122 -653 -1124 0 -3 39 -8 88 -11 1320
-102 2385 -359 2922 -705 l24 -16 -24 41 c-14 23 -401 692 -860 1487 -459 796
-837 1446 -840 1446 -3 1 -299 -503 -657 -1118z"/>
<path d="M5250 6459 c-194 -20 -426 -132 -585 -281 -238 -222 -362 -557 -328
-885 14 -132 49 -247 114 -373 134 -261 345 -438 639 -536 83 -28 90 -29 305
-29 215 0 222 1 305 29 180 60 321 146 446 270 366 367 416 925 121 1361 -52
77 -185 210 -262 262 -228 154 -470 213 -755 182z"/>
<path d="M4360 6434 c-1020 -78 -1791 -225 -2360 -451 -284 -112 -455 -210
-582 -331 -183 -175 -183 -309 0 -484 127 -121 298 -219 582 -331 495 -196
1145 -333 1970 -417 205 -21 572 -49 578 -44 2 1 -35 40 -81 85 -214 213 -331
444 -382 754 -67 411 94 871 408 1159 56 52 75 76 62 75 -11 -1 -99 -7 -195
-15z"/>
<path d="M6304 6369 c259 -242 416 -606 416 -964 0 -354 -156 -719 -409 -958
l-71 -67 48 0 c26 0 131 7 232 15 952 77 1699 224 2250 442 284 112 455 210
582 331 183 175 183 309 0 484 -127 121 -298 219 -582 331 -398 158 -887 276
-1495 361 -312 44 -853 96 -993 96 l-54 0 76 -71z"/>
<path d="M9315 4809 c-81 -53 -294 -157 -435 -212 -561 -219 -1438 -392 -2335
-463 -121 -9 -221 -18 -223 -20 -5 -4 1311 -2264 1318 -2264 3 0 382 649 841
1442 914 1580 901 1558 897 1557 -2 0 -30 -18 -63 -40z"/>
<path d="M1704 4357 c1032 -1788 1462 -2527 1468 -2524 10 3 1319 2246 1326
2270 4 15 -3 17 -49 17 -76 0 -481 35 -694 60 -932 108 -1803 338 -2233 589
-39 22 -73 41 -75 41 -3 0 113 -204 257 -453z"/>
<path d="M4114 2898 l-700 -1203 998 -3 c549 -1 1448 -1 1997 0 l999 3 -698
1200 -698 1200 -99 -1 c-648 -7 -829 -7 -953 -1 l-145 8 -701 -1203z"/>
</g>
</svg>
